<svg width="168" height="231" viewBox="0 0 168 231" fill="none" xmlns="http://www.w3.org/2000/svg">
<path fill-rule="evenodd" clip-rule="evenodd" d="M48.7997 69.4341L63.526 72.5248L62.7533 78.7061L77.8505 81.4259L93.7358 3.58724C93.7358 3.58724 64.2831 -8.0337 48.7997 10.5567V33.0259H50.3449C58.473 15.5945 74.3582 20.6632 74.3582 20.6632L66.2302 58.5858L48.7997 55.0934V69.4341ZM43.3758 19.8597C43.3758 19.8597 11.6208 19.4733 3.49274 60.9038L48.7997 69.4341V55.0934L23.1793 50.071C26.6716 34.9576 43.7003 33.0723 48.7379 33.0723V10.5567C46.4603 13.3476 44.6305 16.4756 43.314 19.8287" fill="#E9C518"/>
<path fill-rule="evenodd" clip-rule="evenodd" d="M62.7533 78.7207L61.2081 84.5311L36.484 79.5088V94.2668L58.1175 98.9028L51.133 136.825C48.0892 136.319 45.1934 135.151 42.6492 133.405C40.105 131.659 37.9742 129.377 36.4067 126.719V151.923C48.027 159.65 62.7533 160.067 62.7533 160.067L77.8505 81.4405L62.7533 78.7207ZM36.484 79.5088L1.54569 72.5239C-6.96868 113.97 22.4685 125.591 22.4685 125.591C22.4685 138.757 28.6495 146.901 36.3758 151.862V126.719C34.7488 123.466 33.8273 119.906 33.6716 116.272C33.6716 116.272 11.6208 108.175 14.7267 89.9553L36.3603 94.2204L36.484 79.5088Z" fill="#5EAF50"/>
<path fill-rule="evenodd" clip-rule="evenodd" d="M145.254 40.3819C145.254 26.8292 138.672 18.7471 130.93 13.663V39.9337C132.466 43.0696 133.259 46.5173 133.248 50.0093C133.248 50.0093 155.299 58.1996 152.208 76.0174L130.914 71.7522V86.093L166.146 93.4488C174.614 52.0028 145.254 40.3819 145.254 40.3819ZM130.914 13.663C119.294 6.67802 104.645 6.29169 104.645 6.29169L89.4707 84.5322L104.923 88.0246L106.469 81.4415L130.868 86.0775V71.7522L109.235 67.5025L115.817 29.5336C118.991 29.9379 122.02 31.0995 124.65 32.9203C127.28 34.7411 129.434 37.1677 130.93 39.9955L130.914 13.663Z" fill="#DA4F22"/>
<path fill-rule="evenodd" clip-rule="evenodd" d="M119.294 155.03C121.5 152.541 123.205 149.65 124.316 146.515C124.316 146.515 156.071 146.902 163.798 105.085L119.294 96.5392V111.266L144.853 116.304C141.747 131.016 125.166 132.901 119.294 133.334V155.03ZM103.842 93.8349L104.954 88.0862L89.5016 84.5938L74.049 162.834C74.049 162.834 104.259 174.455 119.371 155.108V133.473H117.44C109.714 150.904 93.8129 145.836 93.8129 145.836L101.539 107.882L119.294 111.266V96.5392L103.842 93.8349Z" fill="#2C6CAE"/>
<path fill-rule="evenodd" clip-rule="evenodd" d="M1.54565 171.688C1.54565 171.688 24.4 165.878 35.634 191.051C35.634 191.051 43.7621 204.604 45.3228 217.322C45.3228 217.322 32.1417 213.459 22.8547 194.868C22.8547 194.868 14.7267 178.982 1.54565 171.688Z" fill="#A19D98"/>
<path fill-rule="evenodd" clip-rule="evenodd" d="M68.9497 165.492C68.9497 165.492 44.2255 191.051 55.7686 211.187C55.7686 211.187 61.1925 215.066 65.4574 206.938C65.4574 206.938 56.5567 206.938 59.6472 195.703C61.0861 185.198 64.2172 174.995 68.9188 165.492" fill="#A19D98"/>
<path fill-rule="evenodd" clip-rule="evenodd" d="M54.6099 230.551C54.6099 230.551 94.8948 175.553 143.308 196.863C143.308 196.863 114.257 205.764 106.515 210.415C106.515 210.415 79.7822 230.505 54.6099 230.505" fill="#A19D98"/>
</svg>
