<svg width="24" height="24" viewBox="0 0 24 24" fill="none" xmlns="http://www.w3.org/2000/svg">
<path fill-rule="evenodd" clip-rule="evenodd" d="M18.0001 0C19.1047 0 20.0001 0.697651 20.0001 1.55826V13.115C19.6115 13.2633 19.0772 13.4281 18.3718 13.5827C16.9041 13.9044 14.7624 14.168 11.8084 14.168C8.85357 14.168 6.77884 13.9043 5.39583 13.5843C4.80424 13.4474 4.34478 13.3015 4.00015 13.1645L4.00015 1.55825C4.00015 0.697651 4.89561 0 6.00015 0H18.0001ZM2.82646 14.0016C2.11875 14.2014 1.6001 14.8519 1.6001 15.6236V21.0461C1.6001 22.6776 2.93045 24 4.57153 24H19.4287C21.0698 24 22.4001 22.6776 22.4001 21.0461V15.6236C22.4001 14.8375 21.8618 14.1771 21.1338 13.9909C20.5982 14.2755 19.7709 14.5699 18.6424 14.8172C17.069 15.1622 14.8344 15.4319 11.8084 15.4319C8.78319 15.4319 6.60932 15.1623 5.11094 14.8156C4.36199 14.6423 3.7742 14.4481 3.32969 14.2542C3.14476 14.1736 2.97587 14.0893 2.82646 14.0016ZM16.9033 2.21616C17.3513 2.21616 17.7144 2.57929 17.7144 3.02723V9.53111C17.7144 9.97905 17.3513 10.3422 16.9033 10.3422H9.38259C8.93465 10.3422 8.57153 9.97905 8.57153 9.53111L8.57153 3.02723C8.57153 2.57929 8.93465 2.21616 9.38259 2.21616L16.9033 2.21616ZM16.4457 6.21959C16.4457 7.05947 15.7648 7.74034 14.9249 7.74034C14.085 7.74034 13.4042 7.05947 13.4042 6.21958C13.4042 5.3797 14.085 4.69883 14.9249 4.69883C15.7648 4.69883 16.4457 5.3797 16.4457 6.21959ZM11.8327 9.26104C12.4206 9.26104 12.8972 8.75039 12.8972 8.12047V4.31858L12.8923 4.20874C12.8408 3.63036 12.386 3.17803 11.8327 3.17803L11.3768 3.17803C10.2569 3.17803 9.3488 4.08608 9.3488 5.20594L9.3488 6.21954V7.23313C9.3488 8.35299 10.2569 9.26104 11.3768 9.26104H11.8327ZM15.7144 19.5692C15.3042 19.5692 14.9715 19.8999 14.9715 20.3077C14.9715 20.7155 15.3042 21.0461 15.7144 21.0461H18.6858C19.096 21.0461 19.4287 20.7155 19.4287 20.3077C19.4287 19.8999 19.096 19.5692 18.6858 19.5692H15.7144Z" fill="white"/>
</svg>
