<svg width="25" height="25" viewBox="0 0 25 25" fill="none" xmlns="http://www.w3.org/2000/svg">
<path d="M12.5 18.3224C12.84 18.3224 13.1252 18.2072 13.3556 17.9768C13.5852 17.7472 13.7 17.4625 13.7 17.1224C13.7 16.7824 13.5852 16.4972 13.3556 16.2668C13.1252 16.0372 12.84 15.9224 12.5 15.9224C12.16 15.9224 11.8752 16.0372 11.6456 16.2668C11.4152 16.4972 11.3 16.7824 11.3 17.1224C11.3 17.4625 11.4152 17.7472 11.6456 17.9768C11.8752 18.2072 12.16 18.3224 12.5 18.3224ZM11.3 13.5224H13.7V6.32245H11.3V13.5224ZM12.5 24.3224C10.84 24.3224 9.28 24.0072 7.82 23.3769C6.36 22.7472 5.09 21.8925 4.01 20.8125C2.93 19.7325 2.0752 18.4624 1.4456 17.0024C0.8152 15.5424 0.5 13.9824 0.5 12.3224C0.5 10.6624 0.8152 9.10245 1.4456 7.64245C2.0752 6.18245 2.93 4.91245 4.01 3.83245C5.09 2.75245 6.36 1.89725 7.82 1.26685C9.28 0.637249 10.84 0.322449 12.5 0.322449C14.16 0.322449 15.72 0.637249 17.18 1.26685C18.64 1.89725 19.91 2.75245 20.99 3.83245C22.07 4.91245 22.9248 6.18245 23.5544 7.64245C24.1848 9.10245 24.5 10.6624 24.5 12.3224C24.5 13.9824 24.1848 15.5424 23.5544 17.0024C22.9248 18.4624 22.07 19.7325 20.99 20.8125C19.91 21.8925 18.64 22.7472 17.18 23.3769C15.72 24.0072 14.16 24.3224 12.5 24.3224ZM12.5 21.9224C15.18 21.9224 17.45 20.9924 19.31 19.1324C21.17 17.2724 22.1 15.0024 22.1 12.3224C22.1 9.64245 21.17 7.37245 19.31 5.51245C17.45 3.65245 15.18 2.72245 12.5 2.72245C9.82 2.72245 7.55 3.65245 5.69 5.51245C3.83 7.37245 2.9 9.64245 2.9 12.3224C2.9 15.0024 3.83 17.2724 5.69 19.1324C7.55 20.9924 9.82 21.9224 12.5 21.9224Z" fill="#333333"/>
</svg>
