<svg width="20" height="20" viewBox="0 0 20 20" fill="none" xmlns="http://www.w3.org/2000/svg">
<path d="M10 0C15.5228 0 20 4.47715 20 10C20 15.5228 15.5228 20 10 20C4.47715 20 0 15.5228 0 10C0 4.47715 4.47715 0 10 0ZM10 13.8333C9.30965 13.8333 8.75 14.393 8.75 15.0833C8.75 15.7737 9.30965 16.3333 10 16.3333C10.6904 16.3333 11.25 15.7737 11.25 15.0833C11.25 14.393 10.6904 13.8333 10 13.8333ZM10 3.83333C8.15905 3.83333 6.66667 5.32572 6.66667 7.16667C6.66667 7.6269 7.03977 8 7.5 8C7.96023 8 8.33333 7.6269 8.33333 7.16667C8.33333 6.2462 9.07953 5.5 10 5.5C10.9205 5.5 11.6667 6.2462 11.6667 7.16667C11.6667 7.7843 11.529 8.1322 11.0566 8.66258L10.8634 8.87092L10.4233 9.32015C9.51963 10.2672 9.16667 10.9491 9.16667 12.1667C9.16667 12.6269 9.53977 13 10 13C10.4602 13 10.8333 12.6269 10.8333 12.1667C10.8333 11.549 10.971 11.2011 11.4434 10.6708L11.6366 10.4624L12.0767 10.0132C12.9804 9.06615 13.3333 8.38422 13.3333 7.16667C13.3333 5.32572 11.841 3.83333 10 3.83333Z" fill="#206AC1"/>
</svg>
