<svg width="24" height="24" viewBox="0 0 24 24" fill="none" xmlns="http://www.w3.org/2000/svg">
<path d="M12 21.63C11.34 21.63 10.775 21.39 10.305 20.91C9.835 20.43 9.6 19.86 9.6 19.2C9.6 18.54 9.835 17.975 10.305 17.505C10.775 17.035 11.34 16.8 12 16.8L12.72 16.11C12.88 15.95 13.065 15.825 13.275 15.735C13.485 15.645 13.7 15.6 13.92 15.6C14.38 15.6 14.775 15.77 15.105 16.11C15.435 16.45 15.6 16.85 15.6 17.31V17.82C15.6 18.22 15.73 18.55 15.99 18.81C16.25 19.07 16.58 19.2 16.98 19.2C17.28 19.2 17.55 19.11 17.79 18.93C18.03 18.75 18.2 18.52 18.3 18.24L18.66 17.25C18.84 16.77 19.13 16.375 19.53 16.065C19.93 15.755 20.39 15.6 20.91 15.6C21.13 15.04 21.305 14.46 21.435 13.86C21.565 13.26 21.63 12.64 21.63 12C21.63 10.22 21.185 8.595 20.295 7.125C19.405 5.655 18.24 4.5 16.8 3.66V4.8C16.8 5.46 16.565 6.025 16.095 6.495C15.625 6.965 15.06 7.2 14.4 7.2H13.2V9.6C13.2 9.94 13.085 10.225 12.855 10.455C12.625 10.685 12.34 10.8 12 10.8H10.8V12.84C10.8 13.28 10.65 13.65 10.35 13.95C10.05 14.25 9.68 14.4 9.24 14.4C8.96 14.4 8.705 14.34 8.475 14.22C8.245 14.1 8.06 13.93 7.92 13.71L6 10.8H4.8V12C4.8 12.62 4.59 13.15 4.17 13.59C3.75 14.03 3.25 14.29 2.67 14.37C3.19 16.45 4.315 18.18 6.045 19.56C7.775 20.94 9.76 21.63 12 21.63ZM14.4 14.4C14.06 14.4 13.775 14.285 13.545 14.055C13.315 13.825 13.2 13.54 13.2 13.2C13.2 12.86 13.315 12.575 13.545 12.345C13.775 12.115 14.06 12 14.4 12H15.6C15.94 12 16.225 12.115 16.455 12.345C16.685 12.575 16.8 12.86 16.8 13.2C16.8 13.54 16.685 13.825 16.455 14.055C16.225 14.285 15.94 14.4 15.6 14.4H14.4ZM17.19 10.8C16.79 10.8 16.475 10.645 16.245 10.335C16.015 10.025 15.96 9.68 16.08 9.3L16.53 7.98C16.61 7.74 16.75 7.55 16.95 7.41C17.15 7.27 17.37 7.2 17.61 7.2C18.01 7.2 18.325 7.355 18.555 7.665C18.785 7.975 18.84 8.32 18.72 8.7L18.27 10.02C18.19 10.26 18.05 10.45 17.85 10.59C17.65 10.73 17.43 10.8 17.19 10.8ZM12 24C10.34 24 8.78 23.685 7.32 23.055C5.86 22.425 4.59 21.57 3.51 20.49C2.43 19.41 1.575 18.14 0.945 16.68C0.315 15.22 0 13.66 0 12C0 10.34 0.315 8.78 0.945 7.32C1.575 5.86 2.43 4.59 3.51 3.51C4.59 2.43 5.86 1.575 7.32 0.945C8.78 0.315 10.34 0 12 0C13.66 0 15.22 0.315 16.68 0.945C18.14 1.575 19.41 2.43 20.49 3.51C21.57 4.59 22.425 5.86 23.055 7.32C23.685 8.78 24 10.34 24 12C24 13.66 23.685 15.22 23.055 16.68C22.425 18.14 21.57 19.41 20.49 20.49C19.41 21.57 18.14 22.425 16.68 23.055C15.22 23.685 13.66 24 12 24Z" fill="#ffffff"/>
</svg>
