<svg width="36" height="30" viewBox="0 0 36 30" fill="none" xmlns="http://www.w3.org/2000/svg">
<g filter="url(#filter0_d_1786_19849)">
<path d="M23.35 11.6C23.6533 11.6 23.9042 11.5008 24.1025 11.3025C24.3008 11.1042 24.4 10.8533 24.4 10.55C24.4 10.2467 24.3008 9.99584 24.1025 9.7975C23.9042 9.59917 23.6533 9.5 23.35 9.5H19.85C19.5467 9.5 19.2958 9.59917 19.0975 9.7975C18.8992 9.99584 18.8 10.2467 18.8 10.55C18.8 10.8533 18.8992 11.1042 19.0975 11.3025C19.2958 11.5008 19.5467 11.6 19.85 11.6H23.35ZM23.35 15.8C23.6533 15.8 23.9042 15.7008 24.1025 15.5025C24.3008 15.3042 24.4 15.0533 24.4 14.75C24.4 14.4467 24.3008 14.1958 24.1025 13.9975C23.9042 13.7992 23.6533 13.7 23.35 13.7H19.85C19.5467 13.7 19.2958 13.7992 19.0975 13.9975C18.8992 14.1958 18.8 14.4467 18.8 14.75C18.8 15.0533 18.8992 15.3042 19.0975 15.5025C19.2958 15.7008 19.5467 15.8 19.85 15.8H23.35ZM27.2 2.5C27.97 2.5 28.6292 2.77417 29.1775 3.3225C29.7258 3.87083 30 4.53 30 5.3V20.7C30 21.47 29.7258 22.1292 29.1775 22.6775C28.6292 23.2258 27.97 23.5 27.2 23.5H4.8C4.03 23.5 3.37083 23.2258 2.8225 22.6775C2.27417 22.1292 2 21.47 2 20.7V5.3C2 4.53 2.27417 3.87083 2.8225 3.3225C3.37083 2.77417 4.03 2.5 4.8 2.5C14.6194 2.5 15.6132 2.5 27.2 2.5ZM11.8 13.7C12.3833 13.7 12.8792 13.4958 13.2875 13.0875C13.6958 12.6792 13.9 12.1833 13.9 11.6C13.9 11.0167 13.6958 10.5208 13.2875 10.1125C12.8792 9.70417 12.3833 9.5 11.8 9.5C11.2167 9.5 10.7208 9.70417 10.3125 10.1125C9.90417 10.5208 9.7 11.0167 9.7 11.6C9.7 12.1833 9.90417 12.6792 10.3125 13.0875C10.7208 13.4958 11.2167 13.7 11.8 13.7ZM7.6 17.9H16V17.27C16 16.8733 15.8892 16.5058 15.6675 16.1675C15.4458 15.8292 15.1367 15.5667 14.74 15.38C14.2733 15.17 13.8008 15.0125 13.3225 14.9075C12.8442 14.8025 12.3367 14.75 11.8 14.75C11.2633 14.75 10.7558 14.8025 10.2775 14.9075C9.79917 15.0125 9.32667 15.17 8.86 15.38C8.46333 15.5667 8.15417 15.8292 7.9325 16.1675C7.71083 16.5058 7.6 16.8733 7.6 17.27V17.9Z" fill="white"/>
</g>
<defs>
<filter id="filter0_d_1786_19849" x="0" y="0.5" width="36" height="29" filterUnits="userSpaceOnUse" color-interpolation-filters="sRGB">
<feFlood flood-opacity="0" result="BackgroundImageFix"/>
<feColorMatrix in="SourceAlpha" type="matrix" values="0 0 0 0 0 0 0 0 0 0 0 0 0 0 0 0 0 0 127 0" result="hardAlpha"/>
<feOffset dx="2" dy="2"/>
<feGaussianBlur stdDeviation="2"/>
<feComposite in2="hardAlpha" operator="out"/>
<feColorMatrix type="matrix" values="0 0 0 0 0.434104 0 0 0 0 0.728385 0 0 0 0 0.8375 0 0 0 1 0"/>
<feBlend mode="normal" in2="BackgroundImageFix" result="effect1_dropShadow_1786_19849"/>
<feBlend mode="normal" in="SourceGraphic" in2="effect1_dropShadow_1786_19849" result="shape"/>
</filter>
</defs>
</svg>
