<svg width="25" height="24" viewBox="0 0 25 24" fill="none" xmlns="http://www.w3.org/2000/svg">
<path fill-rule="evenodd" clip-rule="evenodd" d="M24.5 12C24.5 5.37258 19.1274 0 12.5 0C5.87258 0 0.5 5.37258 0.5 12C0.5 18.6274 5.87258 24 12.5 24C19.1274 24 24.5 18.6274 24.5 12ZM12.4993 3.79992C11.8303 3.79941 11.276 4.29205 11.1804 4.93455L11.1658 5.13146L11.1641 14.0581L11.1784 14.255C11.2731 14.8976 11.8266 15.3911 12.4957 15.3916C13.1647 15.3922 13.719 14.8995 13.8146 14.257L13.8292 14.0601L13.8309 5.1335L13.8166 4.93657C13.7219 4.29392 13.1684 3.80044 12.4993 3.79992ZM12.5 16.9948C11.6163 16.9948 10.9 17.7112 10.9 18.5948C10.9 19.4785 11.6163 20.1948 12.5 20.1948C13.3836 20.1948 14.1 19.4785 14.1 18.5948C14.1 17.7112 13.3836 16.9948 12.5 16.9948Z" fill="white"/>
</svg>
