<svg width="30" height="42" viewBox="0 0 30 42" fill="none" xmlns="http://www.w3.org/2000/svg">
<g filter="url(#filter0_d_1075_11175)">
<path d="M10.5 11.5C10.5 12.75 10.9375 13.8125 11.8125 14.6875C12.6875 15.5625 13.75 16 15 16C16.25 16 17.3125 15.5625 18.1875 14.6875C19.0625 13.8125 19.5 12.75 19.5 11.5C19.5 10.25 19.0625 9.1875 18.1875 8.3125C17.3125 7.4375 16.25 7 15 7C13.75 7 12.6875 7.4375 11.8125 8.3125C10.9375 9.1875 10.5 10.25 10.5 11.5ZM6 11.5C6 9 6.875 6.875 8.625 5.125C10.375 3.375 12.5 2.5 15 2.5C17.5 2.5 19.625 3.375 21.375 5.125C23.125 6.875 24 9 24 11.5C24 13.525 23.425 15.294 22.275 16.807C21.125 18.319 19.7 19.375 18 19.975L18 32.5375L15.0375 35.5L9.0375 30.25L12 26.5L9 23.5L12 20.5L12 19.975C10.2 19.35 8.75 18.2625 7.65 16.7125C6.55 15.1625 6 13.425 6 11.5Z" fill="white"/>
</g>
<defs>
<filter id="filter0_d_1075_11175" x="4" y="0.5" width="26" height="41" filterUnits="userSpaceOnUse" color-interpolation-filters="sRGB">
<feFlood flood-opacity="0" result="BackgroundImageFix"/>
<feColorMatrix in="SourceAlpha" type="matrix" values="0 0 0 0 0 0 0 0 0 0 0 0 0 0 0 0 0 0 127 0" result="hardAlpha"/>
<feOffset dx="2" dy="2"/>
<feGaussianBlur stdDeviation="2"/>
<feComposite in2="hardAlpha" operator="out"/>
<feColorMatrix type="matrix" values="0 0 0 0 0.434104 0 0 0 0 0.728385 0 0 0 0 0.8375 0 0 0 1 0"/>
<feBlend mode="normal" in2="BackgroundImageFix" result="effect1_dropShadow_1075_11175"/>
<feBlend mode="normal" in="SourceGraphic" in2="effect1_dropShadow_1075_11175" result="shape"/>
</filter>
</defs>
</svg>
