<svg width="33" height="38" viewBox="0 0 33 38" fill="none" xmlns="http://www.w3.org/2000/svg">
<g filter="url(#filter0_d_1072_10964)">
<path fill-rule="evenodd" clip-rule="evenodd" d="M20.9805 8.93671V13.0439H23C25.2091 13.0439 27 14.8348 27 17.0439V27.0439C27 29.253 25.2091 31.0439 23 31.0439H7C4.79086 31.0439 3 29.253 3 27.0439V17.0439C3 14.8348 4.79086 13.0439 7 13.0439H9.01947V8.93671C9.01947 5.63375 11.697 2.95618 15 2.95618C18.303 2.95618 20.9805 5.63375 20.9805 8.93671ZM18 8.93671V13.0439H12V8.93671C12 7.27985 13.3431 5.93671 15 5.93671C16.6569 5.93671 18 7.27985 18 8.93671ZM15 23.9367C16.1046 23.9367 17 23.0413 17 21.9367C17 20.8321 16.1046 19.9367 15 19.9367C13.8954 19.9367 13 20.8321 13 21.9367C13 23.0413 13.8954 23.9367 15 23.9367Z" fill="white"/>
</g>
<defs>
<filter id="filter0_d_1072_10964" x="1" y="0.956177" width="32" height="36.0878" filterUnits="userSpaceOnUse" color-interpolation-filters="sRGB">
<feFlood flood-opacity="0" result="BackgroundImageFix"/>
<feColorMatrix in="SourceAlpha" type="matrix" values="0 0 0 0 0 0 0 0 0 0 0 0 0 0 0 0 0 0 127 0" result="hardAlpha"/>
<feOffset dx="2" dy="2"/>
<feGaussianBlur stdDeviation="2"/>
<feComposite in2="hardAlpha" operator="out"/>
<feColorMatrix type="matrix" values="0 0 0 0 0.434104 0 0 0 0 0.728385 0 0 0 0 0.8375 0 0 0 1 0"/>
<feBlend mode="normal" in2="BackgroundImageFix" result="effect1_dropShadow_1072_10964"/>
<feBlend mode="normal" in="SourceGraphic" in2="effect1_dropShadow_1072_10964" result="shape"/>
</filter>
</defs>
</svg>
