<svg width="25" height="24" viewBox="0 0 25 24" fill="none" xmlns="http://www.w3.org/2000/svg">
<path fill-rule="evenodd" clip-rule="evenodd" d="M17.125 2C18.1605 2 19 2.83946 19 3.875V20.125C19 21.1605 18.1605 22 17.125 22H8.375C7.33946 22 6.5 21.1605 6.5 20.125V3.875C6.5 2.83946 7.33946 2 8.375 2H17.125ZM10.0832 3.00006H15.4165V3.29768C15.4165 3.68559 15.102 4.00006 14.7141 4.00006H10.7856C10.3976 4.00006 10.0832 3.68559 10.0832 3.29768V3.00006ZM9.98353 15.9078L9.46096 16.4865L9.04515 16.1831L9.42724 15.5144L8.73048 15.1885L8.88781 14.6997L9.64077 14.857L9.72505 14.0872H10.2476L10.3263 14.8626L11.0849 14.6997L11.2422 15.1885L10.5342 15.5144L10.9275 16.1831L10.5117 16.4865L9.98353 15.9078ZM12.9577 15.9078L12.4351 16.4865L12.0193 16.1831L12.4014 15.5144L11.7046 15.1885L11.862 14.6997L12.6149 14.857L12.6992 14.0872H13.2218L13.3005 14.8626L14.059 14.6997L14.2164 15.1885L13.5084 15.5144L13.9017 16.1831L13.4859 16.4865L12.9577 15.9078ZM15.9319 15.9078L15.4093 16.4865L14.9935 16.1831L15.3756 15.5144L14.6788 15.1885L14.8361 14.6997L15.5891 14.857L15.6734 14.0872H16.196L16.2746 14.8626L17.0332 14.6997L17.1905 15.1885L16.4825 15.5144L16.8759 16.1831L16.4601 16.4865L15.9319 15.9078Z" fill="white"/>
</svg>
